<svg xmlns="http://www.w3.org/2000/svg" data-name="Layer 1" viewBox="0 0 64 64"><path d="M3 24h58a1 1 0 0 0 1-1v-5a1 1 0 0 0-1-1 4 4 0 0 1 0-8 1 1 0 0 0 1-1V3a1 1 0 0 0-1-1H3a1 1 0 0 0-1 1v20a1 1 0 0 0 1 1ZM44 4h16v3.083a6 6 0 0 0 0 11.834V22H44ZM4 4h38v18H4Z"/><path d="M39 6H17a1 1 0 0 0 0 2h22a1 1 0 0 0 0-2zm0 12H7a1 1 0 0 0 0 2h32a1 1 0 0 0 0-2zm0-6H7a1 1 0 0 0 0 2h32a1 1 0 0 0 0-2zm-7 18a16 16 0 1 0 16 16 16.019 16.019 0 0 0-16-16zm0 30a14 14 0 1 1 14-14 14.015 14.015 0 0 1-14 14z"/><path d="M33 37.142V36a1 1 0 0 0-2 0v1.142A4 4 0 0 0 28 41v2a4 4 0 0 0 3 3.858v5.864A1.993 1.993 0 0 1 30 51v-3h-2v3a4 4 0 0 0 3 3.858V56a1 1 0 0 0 2 0v-1.142A4 4 0 0 0 36 51v-2a4 4 0 0 0-3-3.858v-5.864A1.993 1.993 0 0 1 34 41v3h2v-3a4 4 0 0 0-3-3.858zm-2 7.58A1.993 1.993 0 0 1 30 43v-2a1.993 1.993 0 0 1 1-1.722zM34 49v2a1.993 1.993 0 0 1-1 1.722v-5.444A1.993 1.993 0 0 1 34 49zm20.545-11.6a1 1 0 0 0-1.684.6l-.853 6.879A1 1 0 0 0 53 46a1.069 1.069 0 0 0 .113-.006l7.178-.818a1 1 0 0 0 .578-1.716l-.713-.683c2.605-3.536 2.43-8.254-.541-11.1a7.981 7.981 0 0 0-2.464-1.6 1 1 0 0 0-1.3 1.337 6.662 6.662 0 0 1-.768 6.5zm1.388 2.671a9.212 9.212 0 0 0 2.423-6.827c2.315 2.355 2.2 6.169-.3 8.95a1 1 0 0 0-.082 1.234l-3.825.436.451-3.654a.979.979 0 0 0 .625.191 1 1 0 0 0 .708-.331zM9.455 38.6a1 1 0 0 0 1.684-.6l.853-6.879a1 1 0 0 0-1.105-1.117l-7.178.818a1 1 0 0 0-.578 1.716l.713.683c-2.6 3.536-2.43 8.254.541 11.1a7.981 7.981 0 0 0 2.464 1.6 1 1 0 0 0 1.3-1.337 6.662 6.662 0 0 1 .768-6.5zm-1.388-2.67a9.212 9.212 0 0 0-2.423 6.827c-2.315-2.355-2.2-6.169.3-8.95a1 1 0 0 0 .082-1.234l3.825-.436L9.4 35.79a1 1 0 0 0-1.331.14z"/></svg>