<svg xmlns="http://www.w3.org/2000/svg" enable-background="new 0 0 512 512" viewBox="0 0 512 512"><path d="M406.983,0.029H105.017c-17.646,0-31.996,14.35-31.996,31.996v447.95c0,17.646,14.35,31.996,31.996,31.996h301.966
				c17.646,0,31.996-14.35,31.996-31.996V32.025C438.98,14.378,424.63,0.029,406.983,0.029z M422.981,479.975
				c0,8.819-7.179,15.998-15.998,15.998H105.017c-8.819,0-15.998-7.179-15.998-15.998V32.025c0-8.819,7.179-15.998,15.998-15.998
				h301.966c8.819,0,15.998,7.179,15.998,15.998V479.975z"/><path d="M256.039,217.926c41.385,0,76.187-33.322,76.187-76.187c0-41.964-34.176-76.101-76.187-76.101
				c-42.05,0-76.265,34.137-76.265,76.101C179.774,184.345,214.265,217.926,256.039,217.926z M225.559,193.525
				c7.021-9.997,18.159-16.031,30.48-16.031c12.29,0,23.406,6.042,30.419,16.049c-9.108,5.411-19.448,8.386-30.419,8.386
				C245.095,201.928,234.738,198.948,225.559,193.525z M256.039,81.637c33.192,0,60.189,26.966,60.189,60.103
				c0,15.953-6.202,30.799-17.172,41.991c-9.996-13.87-25.668-22.236-43.016-22.236c-17.39,0-33.091,8.368-43.095,22.242
				c-10.962-11.176-17.171-26.032-17.171-41.997C195.772,108.602,222.808,81.637,256.039,81.637z"/><path d="M256 155.941c14.811 0 26.856-12.046 26.856-26.856S270.811 102.228 256 102.228s-26.856 12.046-26.856 26.856S241.189 155.941 256 155.941zM256 118.226c5.984 0 10.858 4.874 10.858 10.858 0 5.984-4.874 10.858-10.858 10.858s-10.858-4.874-10.858-10.858C245.142 122.999 249.915 118.226 256 118.226zM212.661 241.447c-4.421 0-7.999 3.578-7.999 7.999s3.578 7.999 7.999 7.999h86.678c4.421 0 7.999-3.578 7.999-7.999s-3.578-7.999-7.999-7.999H212.661zM152.91 296.972h206.18c4.421 0 7.999-3.578 7.999-7.999s-3.578-7.999-7.999-7.999H152.91c-4.421 0-7.999 3.578-7.999 7.999S148.489 296.972 152.91 296.972zM381.775 365.972H210.677c-4.421 0-7.999 3.578-7.999 7.999 0 4.421 3.578 7.999 7.999 7.999h171.098c4.421 0 7.999-3.578 7.999-7.999C389.774 369.55 386.196 365.972 381.775 365.972zM152.629 365.972h-22.404c-4.421 0-7.999 3.578-7.999 7.999 0 4.421 3.578 7.999 7.999 7.999h22.404c4.421 0 7.999-3.578 7.999-7.999C160.628 369.55 157.05 365.972 152.629 365.972zM381.775 430.363H210.677c-4.421 0-7.999 3.578-7.999 7.999 0 4.421 3.578 7.999 7.999 7.999h171.098c4.421 0 7.999-3.578 7.999-7.999C389.774 433.941 386.196 430.363 381.775 430.363zM152.629 430.363h-22.404c-4.421 0-7.999 3.578-7.999 7.999 0 4.421 3.578 7.999 7.999 7.999h22.404c4.421 0 7.999-3.578 7.999-7.999C160.628 433.941 157.05 430.363 152.629 430.363z"/></svg>