<svg xmlns="http://www.w3.org/2000/svg" viewBox="0 0 50 50"><path d="M9 49h32v-4h8V33c0-5.834-3.863-10.781-9.165-12.421C42.335 18.978 44 16.182 44 13c0-4.962-4.037-9-9-9-.855 0-1.703.128-2.531.373C30.636 2.31 27.971 1 25 1s-5.636 1.31-7.469 3.373A8.903 8.903 0 0 0 15 4c-4.963 0-9 4.038-9 9 0 3.182 1.665 5.978 4.165 7.579C4.863 22.219 1 27.166 1 33v12h8v4zm30-2H11V32c0-.334.021-.664.05-.991.01-.107.023-.213.035-.32.027-.226.062-.449.103-.67.021-.112.038-.225.062-.336.062-.287.135-.569.218-.848.042-.138.092-.272.139-.408a10.94 10.94 0 0 1 .358-.912c.064-.143.134-.283.204-.423.102-.204.21-.404.324-.601.1-.171.2-.342.308-.507.084-.128.174-.252.263-.377.094-.132.191-.262.291-.389.092-.117.184-.233.281-.346.126-.147.257-.289.39-.429a11.347 11.347 0 0 1 .866-.826c.11-.093.224-.182.338-.271.131-.102.263-.202.399-.298.126-.09.252-.179.383-.264.132-.086.268-.165.403-.245.255-.151.517-.292.786-.423.135-.066.268-.135.406-.196l.161-.072A10.948 10.948 0 0 1 22 21h6c1.499 0 2.928.303 4.231.849l.161.072c.138.06.271.13.406.196.269.131.531.272.786.423.136.08.272.159.403.245a11.294 11.294 0 0 1 .782.562c.114.089.228.178.338.271a10.787 10.787 0 0 1 .866.826c.133.14.265.282.39.429a11.77 11.77 0 0 1 .572.735c.089.125.18.248.263.377a11.59 11.59 0 0 1 .632 1.108c.07.14.14.28.204.423a10.106 10.106 0 0 1 .358.912c.047.136.097.271.139.408.084.278.157.561.218.848.024.111.042.224.062.336A11.385 11.385 0 0 1 39 32v15zm8-14v10h-6V32c0-.475-.029-.943-.079-1.405-.012-.109-.035-.215-.049-.323a13.142 13.142 0 0 0-.18-1.059c-.025-.114-.059-.224-.087-.337a12.927 12.927 0 0 0-.287-1.002c-.037-.111-.08-.219-.12-.328a12.974 12.974 0 0 0-.389-.951 9.663 9.663 0 0 0-.157-.324 12.625 12.625 0 0 0-1.245-2.029c-.073-.098-.143-.197-.219-.293a12.851 12.851 0 0 0-.693-.8c-.068-.073-.131-.15-.201-.221a12.942 12.942 0 0 0-.994-.923C42.227 22.164 47 27.035 47 33zM33.723 6.121C34.145 6.041 34.571 6 35 6c3.859 0 7 3.14 7 7s-3.141 7-7 7c-1.373 0-2.694-.4-3.826-1.144.015-.011.027-.025.041-.037a10.043 10.043 0 0 0 2.199-2.438l.055-.09c.173-.276.332-.56.478-.853l.069-.144c.133-.277.252-.561.359-.852l.066-.18a9.76 9.76 0 0 0 .252-.854c.018-.072.039-.143.055-.215.064-.283.112-.571.151-.863.011-.077.027-.153.035-.231.042-.36.066-.727.066-1.099 0-.396-.029-.784-.074-1.168-.014-.122-.037-.242-.056-.364a10.404 10.404 0 0 0-.251-1.172 9.703 9.703 0 0 0-.282-.849c-.03-.077-.054-.156-.085-.232a9.941 9.941 0 0 0-.519-1.075c-.005-.007-.007-.013-.01-.019zm-2.56-.216.061.079c.049.061.093.125.14.187.51.671.9 1.402 1.174 2.173.018.05.038.099.055.15.119.359.209.726.276 1.1.014.078.025.158.036.237.056.385.095.774.095 1.169 0 .328-.025.652-.065.973-.009.075-.023.149-.034.224a7.885 7.885 0 0 1-.159.784c-.014.054-.027.109-.042.163a8.03 8.03 0 0 1-.771 1.838l-.018.03a7.903 7.903 0 0 1-.535.8l-.053.071a8.018 8.018 0 0 1-1.414 1.42l-.095.071a8.057 8.057 0 0 1-.775.52c-.048.028-.093.059-.142.086l-.114.066C27.655 18.654 26.368 19 25 19s-2.655-.346-3.782-.954l-.114-.066c-.048-.027-.094-.058-.142-.086a8.057 8.057 0 0 1-.775-.52l-.095-.071a8.086 8.086 0 0 1-1.414-1.42l-.053-.071a8.074 8.074 0 0 1-.535-.8l-.018-.03a8.015 8.015 0 0 1-.772-1.839c-.015-.053-.028-.108-.042-.161a7.963 7.963 0 0 1-.159-.785c-.011-.075-.025-.148-.034-.224A7.858 7.858 0 0 1 17 11c0-.395.039-.784.095-1.168.012-.079.022-.158.036-.237.067-.373.157-.741.276-1.1.017-.051.037-.1.055-.15a8.002 8.002 0 0 1 1.174-2.173c.047-.062.091-.127.14-.187l.061-.079a7.986 7.986 0 0 1 12.326-.001zM8 13c0-3.86 3.141-7 7-7 .429 0 .855.041 1.277.121l-.009.019c-.193.346-.367.704-.519 1.074-.032.077-.056.156-.086.234a9.794 9.794 0 0 0-.379 1.226c-.062.261-.112.526-.154.794-.019.121-.041.241-.056.364-.045.384-.074.772-.074 1.168 0 .372.024.739.064 1.1.009.078.025.153.035.23.039.292.088.581.151.864.016.072.037.142.055.213.072.29.155.576.252.856.021.061.044.12.066.181.107.29.227.574.359.851l.07.145c.146.293.305.577.478.853l.055.09a10.082 10.082 0 0 0 2.199 2.438l.041.037A6.954 6.954 0 0 1 15 20c-3.859 0-7-3.14-7-7zM3 43V33c0-5.965 4.773-10.836 10.701-10.996-.348.289-.678.6-.994.923-.07.071-.133.148-.201.221a12.93 12.93 0 0 0-.694.801c-.075.095-.145.194-.218.292a12.763 12.763 0 0 0-.765 1.143c-.172.289-.332.584-.481.887-.053.108-.106.215-.157.324-.143.31-.271.628-.389.951-.04.11-.083.217-.12.328-.11.329-.203.664-.288 1.004-.028.112-.061.222-.086.335a13.19 13.19 0 0 0-.18 1.061c-.015.108-.037.213-.049.322C9.029 31.057 9 31.525 9 32v11H3z"/></svg>