<svg xmlns="http://www.w3.org/2000/svg" enable-background="new 0 0 55 55" viewBox="0 0 55 55"><path d="M32.88 21.69c.55 0 1-.45 1-1 0-5.5-3.46-10.47-8.62-12.38-.52-.19-1.09.07-1.28.59-.19.52.07 1.09.59 1.28 4.38 1.62 7.32 5.84 7.32 10.5C31.88 21.24 32.33 21.69 32.88 21.69zM21.2 7.51C21.03 7.5 20.86 7.5 20.69 7.5c-.55 0-1 .45-1 1s.45 1 1 1c.13 0 .26 0 .39.01.02 0 .04 0 .07 0 .52 0 .96-.41 1-.94C22.17 8.02 21.76 7.55 21.2 7.51z"/><path d="M51.57,41.82l-9.25-9.25c-1.15-1.15-2.97-1.22-4.22-0.23l-2.01-2.01c1.76-2.8,2.79-6.09,2.79-9.63
		c0-10.03-8.16-18.19-18.19-18.19S2.5,10.66,2.5,20.69s8.16,18.19,18.19,18.19c3.54,0,6.83-1.03,9.63-2.79l2.01,2.01
		c-0.99,1.25-0.92,3.06,0.23,4.22l9.25,9.25c0.62,0.62,1.44,0.93,2.25,0.93s1.63-0.31,2.25-0.93l5.25-5.25
		c0.6-0.6,0.93-1.4,0.93-2.25S52.17,42.42,51.57,41.82z M4.5,20.69c0-8.93,7.26-16.19,16.19-16.19s16.19,7.26,16.19,16.19
		s-7.26,16.19-16.19,16.19S4.5,29.62,4.5,20.69z M34.92,31.98l1.74,1.74l-2.94,2.94l-1.74-1.74C33.07,34.06,34.06,33.07,34.92,31.98
		z M50.15,44.9l-5.25,5.25c-0.46,0.46-1.21,0.46-1.67,0l-9.25-9.25c-0.46-0.46-0.46-1.21,0-1.67l5.25-5.25
		c0.23-0.23,0.53-0.35,0.84-0.35c0.3,0,0.61,0.12,0.84,0.35l9.25,9.25c0.22,0.22,0.35,0.52,0.35,0.84S50.38,44.68,50.15,44.9z"/></svg>