<svg xmlns="http://www.w3.org/2000/svg" viewBox="0 0 512 512"><path d="M80 202.468V488a8 8 0 0 0 8 8h32a8 8 0 0 0 8-8V202.468c28.524-13.351 48-49.547 48-90.468 0-25.183-7.2-48.953-20.275-66.931C142.091 26.324 123.722 16 104 16S65.909 26.324 52.275 45.069C39.2 63.047 32 86.817 32 112c0 40.921 19.476 77.117 48 90.468ZM104 32c30.878 0 56 35.888 56 80 0 36.766-17.548 68.666-42.674 77.575a8 8 0 0 0-5.326 7.54V480H96V197.115a8 8 0 0 0-5.326-7.54C65.548 180.666 48 148.766 48 112c0-44.112 25.122-80 56-80Zm160 172v284a8 8 0 0 0 8 8h32a8 8 0 0 0 8-8V204c29.369-10.208 48-39.328 48-76 0-.19-.007-.381-.021-.571l-6.956-97.217a8.206 8.206 0 0 0-.072-.645A15.913 15.913 0 0 0 337.137 16h-2.578a16.044 16.044 0 0 0-15.69 12.863c-.025.124-.047.25-.066.375L312 74.352l-6.8-45.114a7.946 7.946 0 0 0-.066-.375A16.044 16.044 0 0 0 289.441 16h-3.489a15.9 15.9 0 0 0-15.325 11.4 7.922 7.922 0 0 0-.254 1.148l-6.7 46.079-7.022-44.485A15.947 15.947 0 0 0 240.76 16h-1.9a15.913 15.913 0 0 0-15.814 13.567 8.206 8.206 0 0 0-.072.645l-6.956 97.217c-.014.19-.021.381-.021.571.003 36.672 18.634 65.792 48.003 76ZM238.89 32h1.87c.015.151.034.3.058.452l15.28 96.8A8 8 0 0 0 264 136h.049a8 8 0 0 0 7.868-6.849L286.04 32h3.392l14.657 97.193a8 8 0 0 0 15.822 0L334.568 32h2.542l6.89 96.28c-.1 31.4-16.531 55.714-41.92 61.991a8 8 0 0 0-6.08 7.766V480h-16V198.037a8 8 0 0 0-6.08-7.766c-25.389-6.277-41.82-30.595-41.92-61.991ZM432 276.145V488a8 8 0 0 0 8 8h32a8 8 0 0 0 8-8V40a24.028 24.028 0 0 0-24-24c-1.652 0-16.549.572-30.536 20.387C408.567 60.324 400 101.913 400 160c0 80.578 22.053 107.915 32 116.145ZM456.115 32H456Zm.064 0A8.01 8.01 0 0 1 464 40v440h-16V272a8 8 0 0 0-4.422-7.155c-.057-.029-6.122-3.823-12.423-16.423C424.242 234.6 416 208.03 416 160c0-121.421 38.273-127.768 40.179-128Z"/></svg>